<?xml version="1.0" encoding="UTF-8" standalone="no"?>
<!-- Generator: Adobe Illustrator 18.1.1, SVG Export Plug-In . SVG Version: 6.00 Build 0)  -->
<svg id="Layer_1" xmlns="http://www.w3.org/2000/svg" xml:space="preserve" viewBox="0 0 148.4 148.4" version="1.1" y="0px" x="0px" xmlns:xlink="http://www.w3.org/1999/xlink" enable-background="new 0 0 148.4 148.4">
		<path d="m74.2 147.9c-40.6 0-73.7-33.1-73.7-73.7s33.1-73.7 73.7-73.7 73.7 33.1 73.7 73.7c0 40.7-33 73.7-73.7 73.7z" fill="#0060AE"/>
		<path d="m74.2 1c40.4 0 73.2 32.8 73.2 73.2s-32.8 73.2-73.2 73.2-73.2-32.8-73.2-73.2 32.8-73.2 73.2-73.2m0-1c-40.9 0-74.2 33.3-74.2 74.2s33.3 74.2 74.2 74.2 74.2-33.3 74.2-74.2-33.3-74.2-74.2-74.2z" fill="#fff"/>
	<path d="m74.2 121.8c26.3 0 47.6-21.3 47.6-47.6s-21.3-47.6-47.6-47.6-47.6 21.3-47.6 47.6 21.3 47.6 47.6 47.6z" fill="#fff"/>
	<path d="m74.2 105.1c-56.1-38.6-14.9-69.3 0-47.2 14.9-22.1 56.1 8.6 0 47.2z" fill="#E3173E"/>
</svg>
